<svg width="105" height="126" viewBox="0 0 105 126" fill="none" xmlns="http://www.w3.org/2000/svg">
<path d="M1 125.5C2.12132 118.451 3.17328 113.592 1 110.5C38.0493 64.8825 61.3598 41.5902 104 1C103.239 8.83208 102.701 12.9418 103 23.5C97.8472 28.6802 94.7567 32.0104 89 38.5C81.6078 39.0684 77.0652 39.7864 68.5 41.5C75.4506 41.4008 79.3993 41.4321 87 42.5C79.9934 49.6475 76.6873 53.8784 71 61.5C71 61.5 61.521 62.7896 57 64.5C62.1262 65.1399 64.5861 65.8694 68.5 68C59.2045 69.9216 54.8874 71.4805 48.5 75C57.2452 73.37 62.0664 72.4877 65.5 73L53 89.5C44.8095 87.2109 39.6196 87.0592 30 87.5C26.7675 86.3473 18.0799 99.2817 1 125.5Z" fill="white"/>
<path d="M43 39.5C38.9842 43.6309 37.6189 47.4537 30 53.5C30.2356 57.8266 29.9728 60.2378 28.5 64.5C27.4594 62.3647 26.6717 61.316 24.5 60C25.6033 69.2683 25.423 72.994 24.5 78.5C55.7243 44.4264 65.2231 35.3383 98.1461 3.8386L98.5 3.5C90.3876 9.39993 85.8377 12.7068 78 17.5C75.6533 19.8475 74.8046 21.0036 73.5 23C73.2827 21.6172 73.3673 20.8005 74 19.25C62.7996 27.0004 57.1612 30.7174 49.5 35C48.1505 39.828 46.9725 42.4601 44 47C44.5195 42.0127 44.1449 40.733 43 39.5Z" fill="white"/>
<path d="M98.5 3.5C90.3876 9.39993 85.8377 12.7068 78 17.5C75.6533 19.8475 74.8046 21.0036 73.5 23C73.2827 21.6172 73.3673 20.8005 74 19.25C62.7996 27.0004 57.1612 30.7174 49.5 35C48.1505 39.828 46.9725 42.4601 44 47C44.5195 42.0127 44.1449 40.733 43 39.5C38.9842 43.6309 37.6189 47.4537 30 53.5C30.2356 57.8266 29.9728 60.2378 28.5 64.5C27.4594 62.3647 26.6717 61.316 24.5 60C25.6033 69.2683 25.423 72.994 24.5 78.5C55.7243 44.4264 65.2231 35.3383 98.1461 3.8386M98.5 3.5L98.1461 3.8386M98.5 3.5C98.3817 3.61316 98.2638 3.72602 98.1461 3.8386M1 125.5C2.12132 118.451 3.17328 113.592 1 110.5C38.0493 64.8825 61.3598 41.5902 104 1C103.239 8.83208 102.701 12.9418 103 23.5C97.8472 28.6802 94.7567 32.0104 89 38.5C81.6078 39.0684 77.0652 39.7864 68.5 41.5C75.4506 41.4008 79.3993 41.4321 87 42.5C79.9934 49.6475 76.6873 53.8784 71 61.5C71 61.5 61.521 62.7896 57 64.5C62.1262 65.1399 64.5861 65.8694 68.5 68C59.2045 69.9216 54.8874 71.4805 48.5 75C57.2452 73.37 62.0664 72.4877 65.5 73L53 89.5C44.8095 87.2109 39.6196 87.0592 30 87.5C26.7675 86.3473 18.0799 99.2817 1 125.5Z" stroke="#003667" stroke-linecap="round" stroke-linejoin="round"/>
</svg>
