<svg width="385" height="409" viewBox="0 0 385 409" fill="none" xmlns="http://www.w3.org/2000/svg">
<path d="M234.875 280.279C232.676 281.531 232.193 284.486 233.869 286.381L339.277 405.557C342.204 408.867 347.26 409.177 350.57 406.25L382.03 378.424C385.339 375.497 385.649 370.441 382.722 367.132L277.596 248.273C275.831 246.279 272.646 246.54 271.179 248.763C259.03 267.168 253.651 269.59 234.875 280.279Z" fill="white"/>
<path fill-rule="evenodd" clip-rule="evenodd" d="M238.593 250.968C297.751 198.645 303.291 108.272 250.968 49.1142C198.645 -10.0433 108.272 -15.5837 49.1142 36.7394C-10.0433 89.0625 -15.5837 179.435 36.7394 238.593C81.1818 288.84 153.075 300.406 209.975 270.686C220.065 265.417 229.683 258.848 238.593 250.968ZM145.968 248.951C203.958 248.951 250.968 201.941 250.968 143.951C250.968 85.9608 203.958 38.9507 145.968 38.9507C87.9779 38.9507 40.9678 85.9608 40.9678 143.951C40.9678 201.941 87.9779 248.951 145.968 248.951Z" fill="white"/>
</svg>
