<svg width="382" height="401" viewBox="0 0 382 401" fill="none" xmlns="http://www.w3.org/2000/svg">
<path d="M235.541 278.989C233.356 280.264 232.903 283.223 234.599 285.101L333.183 394.283C340.585 402.481 353.232 403.126 361.43 395.723L374.79 383.66C382.988 376.258 383.633 363.611 376.231 355.413L277.932 246.547C276.147 244.57 272.965 244.864 271.52 247.102C259.561 265.63 254.207 268.108 235.541 278.989Z" fill="white"/>
<path fill-rule="evenodd" clip-rule="evenodd" d="M249.261 47.6713C302.188 106.289 297.576 196.714 238.959 249.641C230.13 257.613 220.58 264.279 210.545 269.653C153.953 299.954 81.9446 289.128 36.9887 239.339C-15.9389 180.722 -11.3265 90.2968 47.2908 37.3692C105.908 -15.5584 196.333 -10.946 249.261 47.6713ZM204.813 211.825C242.115 178.144 245.05 120.601 211.369 83.2988C177.688 45.9969 120.145 43.0617 82.8427 76.7429C45.5408 110.424 42.6056 167.967 76.2869 205.269C109.968 242.571 167.511 245.506 204.813 211.825Z" fill="white"/>
</svg>
