<svg width="168" height="35" viewBox="0 0 168 35" fill="none" xmlns="http://www.w3.org/2000/svg">
<path d="M23.224 4.592V26H21.048L5.944 7.6V22.704L9.784 24.4L8.984 26H0.76V24.688L3.768 22.256V4.304L0.376 2.448L1.176 0.848H6.328L21.048 18.736V4.08L17.24 2.448L18.04 0.848H26.264V2.16L23.224 4.592ZM39.3133 8.592C40.7853 8.592 42.1079 8.96533 43.2812 9.712C44.4546 10.4373 45.3613 11.4293 46.0013 12.688C46.6626 13.9467 46.9933 15.344 46.9933 16.88C46.9933 18.544 46.4706 20.1013 45.4253 21.552C44.4013 23.0027 43.1106 24.1653 41.5533 25.04C39.9959 25.8933 38.4919 26.32 37.0413 26.32C35.5693 26.32 34.2466 25.9573 33.0733 25.232C31.9213 24.4853 31.0146 23.4827 30.3533 22.224C29.6919 20.944 29.3613 19.536 29.3613 18C29.3613 16.336 29.8733 14.7893 30.8973 13.36C31.9426 11.9093 33.2439 10.7573 34.8013 9.904C36.3586 9.02933 37.8626 8.592 39.3133 8.592ZM37.4573 11.664C36.3906 11.664 35.5799 12.0693 35.0253 12.88C34.4919 13.6907 34.2253 14.8853 34.2253 16.464C34.2253 18.4053 34.6306 20.016 35.4413 21.296C36.2519 22.576 37.4039 23.216 38.8973 23.216C41.0733 23.216 42.1613 21.6053 42.1613 18.384C42.1613 16.464 41.7559 14.864 40.9453 13.584C40.1346 12.304 38.9719 11.664 37.4573 11.664ZM60.4545 26.064C59.8785 26.2347 59.1745 26.32 58.3425 26.32C56.4438 26.32 55.0572 25.8613 54.1825 24.944C53.3292 24.0053 52.9025 22.5653 52.9025 20.624V11.504H49.4465V10.032L55.8465 2.8H57.3825V9.872H63.1425V11.504H57.3825V20.752C57.3825 21.6053 57.5852 22.224 57.9905 22.608C58.4172 22.992 59.0465 23.184 59.8785 23.184C60.3265 23.184 60.7532 23.1093 61.1585 22.96C61.5852 22.7893 62.1078 22.48 62.7265 22.032L63.6865 23.504L60.4545 26.064ZM77.0628 25.968C76.0814 26.2027 74.8761 26.32 73.4468 26.32C71.9748 26.32 70.6521 25.9573 69.4788 25.232C68.3268 24.4853 67.4201 23.4827 66.7588 22.224C66.0974 20.944 65.7668 19.536 65.7668 18C65.7668 16.336 66.2788 14.7893 67.3028 13.36C68.3481 11.9093 69.6494 10.7573 71.2068 9.904C72.7641 9.02933 74.2681 8.592 75.7188 8.592C77.8308 8.592 79.4734 9.41333 80.6468 11.056C81.8201 12.6987 82.3961 14.9067 82.3748 17.68H70.6308C70.8014 19.3013 71.2814 20.6133 72.0708 21.616C72.8814 22.6187 73.9694 23.12 75.3348 23.12C76.7641 23.12 78.8121 22.1707 81.4788 20.272L82.4068 21.744L77.0628 25.968ZM73.8948 11.664C71.7828 11.664 70.6734 13.1253 70.5668 16.048H77.5108C77.3401 15.0027 77.1481 14.192 76.9348 13.616C76.7428 13.0187 76.4014 12.5493 75.9108 12.208C75.4414 11.8453 74.7694 11.664 73.8948 11.664ZM121.213 26H110.589V24.688L113.789 22.48L111.517 16.976H101.117L98.8448 22.32L104.157 24.4L103.357 26H93.4047V24.688L96.6048 22.224L105.309 1.872L109.501 0.239998L118.749 22.576L122.013 24.4L121.213 26ZM106.429 4.592L101.917 15.152H110.781L106.429 4.592ZM133.651 26.32C132.606 26.32 131.656 26.0213 130.803 25.424V31.216L135.443 32.528L134.643 34.128H123.475V32.816L126.323 30.544V14.064L123.475 12.336V11.024L129.427 8.304L130.547 12.272L134.899 8.848C135.582 8.67733 136.36 8.592 137.235 8.592C138.451 8.592 139.539 8.96533 140.499 9.712C141.48 10.4373 142.248 11.4293 142.803 12.688C143.358 13.9467 143.635 15.344 143.635 16.88C143.635 18.544 143.112 20.1013 142.067 21.552C141.043 23.0027 139.752 24.1653 138.195 25.04C136.638 25.8933 135.134 26.32 133.683 26.32H133.651ZM135.443 12.176C134.654 12.176 133.896 12.3147 133.171 12.592C132.467 12.848 131.667 13.3387 130.771 14.064V19.344C130.771 20.4533 131.176 21.3813 131.987 22.128C132.819 22.8533 133.992 23.216 135.507 23.216C137.704 23.216 138.803 21.616 138.803 18.416C138.803 16.6453 138.515 15.1627 137.939 13.968C137.363 12.7733 136.531 12.176 135.443 12.176ZM157.495 26.32C156.449 26.32 155.5 26.0213 154.647 25.424V31.216L159.287 32.528L158.487 34.128H147.319V32.816L150.167 30.544V14.064L147.319 12.336V11.024L153.271 8.304L154.391 12.272L158.743 8.848C159.425 8.67733 160.204 8.592 161.079 8.592C162.295 8.592 163.383 8.96533 164.343 9.712C165.324 10.4373 166.092 11.4293 166.647 12.688C167.201 13.9467 167.479 15.344 167.479 16.88C167.479 18.544 166.956 20.1013 165.911 21.552C164.887 23.0027 163.596 24.1653 162.039 25.04C160.481 25.8933 158.977 26.32 157.527 26.32H157.495ZM159.287 12.176C158.497 12.176 157.74 12.3147 157.015 12.592C156.311 12.848 155.511 13.3387 154.615 14.064V19.344C154.615 20.4533 155.02 21.3813 155.831 22.128C156.663 22.8533 157.836 23.216 159.351 23.216C161.548 23.216 162.647 21.616 162.647 18.416C162.647 16.6453 162.359 15.1627 161.783 13.968C161.207 12.7733 160.375 12.176 159.287 12.176Z" fill="white"/>
</svg>
